<?xml version="1.0" encoding="UTF-8" standalone="no"?>
<!-- Created with Inkscape (http://www.inkscape.org/) -->

<svg
   width="10mm"
   height="9.6859207mm"
   viewBox="0 0 10 9.6859207"
   version="1.1"
   id="svg5816"
   xml:space="preserve"
   inkscape:version="1.3 (0e150ed6c4, 2023-07-21)"
   sodipodi:docname="Fast brændsel.svg"
   xmlns:inkscape="http://www.inkscape.org/namespaces/inkscape"
   xmlns:sodipodi="http://sodipodi.sourceforge.net/DTD/sodipodi-0.dtd"
   xmlns="http://www.w3.org/2000/svg"
   xmlns:svg="http://www.w3.org/2000/svg"><sodipodi:namedview
     id="namedview5818"
     pagecolor="#505050"
     bordercolor="#eeeeee"
     borderopacity="1"
     inkscape:showpageshadow="0"
     inkscape:pageopacity="0"
     inkscape:pagecheckerboard="0"
     inkscape:deskcolor="#505050"
     inkscape:document-units="mm"
     showgrid="false"
     inkscape:zoom="16.871996"
     inkscape:cx="17.573499"
     inkscape:cy="17.514229"
     inkscape:window-width="2560"
     inkscape:window-height="1009"
     inkscape:window-x="0"
     inkscape:window-y="0"
     inkscape:window-maximized="0"
     inkscape:current-layer="layer1" /><defs
     id="defs5813"><marker
       id="DistanceX"
       orient="auto"
       refX="0"
       refY="0"
       style="overflow:visible"><path
         d="M 3,-3 -3,3 M 0,-5 V 5"
         style="stroke:#000000;stroke-width:0.5"
         id="path6610" /></marker><pattern
       id="Hatch"
       patternUnits="userSpaceOnUse"
       width="8"
       height="8"
       x="0"
       y="0"><path
         d="M8 4 l-4,4"
         stroke="#000000"
         stroke-width="0.25"
         linecap="square"
         id="path6613" /><path
         d="M6 2 l-4,4"
         stroke="#000000"
         stroke-width="0.25"
         linecap="square"
         id="path6615" /><path
         d="M4 0 l-4,4"
         stroke="#000000"
         stroke-width="0.25"
         linecap="square"
         id="path6617" /></pattern><symbol
       id="$MODEL_SPACE" /><symbol
       id="$PAPER_SPACE" /></defs><g
     inkscape:label="Layer 1"
     inkscape:groupmode="layer"
     id="layer1"><g
       inkscape:label="0"
       id="g6624"
       transform="matrix(8.5430873,0,0,8.5430873,124.4853,-9427.0565)" /><g
       id="g1"><path
         d="M 9.2923386,9.6771755 H 0.70766168 a 1.9113079,1.9113079 0 0 1 0,-2.9553116 H 9.2923386 a 1.9113079,1.9113079 0 0 1 0,2.9553116 z"
         style="fill:none;stroke:#984c5f;stroke-width:0.0174893;stroke-dasharray:none"
         id="path6626" /><path
         d="M 3.5828801,6.7218639 3.5570624,6.6994522 3.5312464,6.6770405 3.5054452,6.6553756 3.4796598,6.632963 3.4539016,6.6105513 3.428173,6.5881396 3.4024786,6.5657279 3.3768296,6.5433153 3.3512287,6.5209036 3.3256803,6.4984919 3.3001948,6.4760802 3.274775,6.4536676 3.2494286,6.4312559 3.22416,6.4088442 3.19898,6.3864322 3.17389,6.3632732 3.148896,6.3401142 3.124006,6.3169552 3.099224,6.2937962 3.074561,6.2706382 3.050016,6.2474792 3.025601,6.2235732 3.001319,6.1996672 2.977178,6.1757612 2.953181,6.1518562 2.929336,6.1272022 2.905649,6.1025492 2.882129,6.0778962 2.858775,6.0532432 2.835599,6.0278422 2.812607,6.0024422 2.789801,5.9770412 2.767193,5.9516412 2.744783,5.9254932 2.722579,5.8993462 2.700589,5.8731992 2.67882,5.8463052 2.657273,5.8194112 2.635959,5.7925172 2.614881,5.7656232 2.594046,5.7379812 2.57346,5.7103402 2.55313,5.6819512 2.533063,5.6535632 2.513261,5.6251742 2.493734,5.5960382 2.474486,5.5669032 2.455523,5.5370202 2.436853,5.5071382 2.418483,5.4765082 2.40042,5.4458792 2.382677,5.4152492 2.3652591,5.3838717 2.348182,5.352495 2.3314522,5.3203714 2.3150818,5.2882479 2.2990774,5.2561235 2.2834518,5.224 2.268199,5.1911297 2.2533758,5.1582585 2.238947,5.1253873 2.2249141,5.092517 2.2113332,5.058899 2.1981751,5.025281 2.1854691,4.991663 2.173215,4.958045 2.1614129,4.924427 2.1500899,4.890062 2.1392759,4.855697 2.1289419,4.821332 2.1191119,4.786966 2.1097919,4.752601 2.1009819,4.718236 2.0927319,4.683871 2.0850219,4.649506 2.0778519,4.61514 2.0712719,4.580775 2.0652319,4.54641 2.0598119,4.512045 2.0549519,4.47768 2.0507119,4.443314 2.0470619,4.408949 2.0440419,4.374584 2.0416719,4.340966 2.0399419,4.307348 2.0388419,4.27373 2.0384222,4.240112 l 2.536e-4,-0.033617 9.339e-4,-0.033618 0.00161,-0.032871 0.00232,-0.03287 0.00305,-0.032871 0.00373,-0.032871 0.00449,-0.032123 0.00522,-0.032124 0.00596,-0.032123 0.00672,-0.031377 0.00751,-0.031377 0.00824,-0.031377 0.00898,-0.03063 0.00971,-0.03063 0.01039,-0.030629 0.011125,-0.029883 0.011774,-0.029882 0.012424,-0.029882 0.013101,-0.029135 0.013694,-0.029136 0.014344,-0.029135 0.014908,-0.029136 0.015502,-0.028388 0.016094,-0.028389 0.01663,-0.028389 0.017139,-0.028388 0.017698,-0.028389 0.018189,-0.027642 0.01868,-0.027641 0.019158,-0.027641 0.019613,-0.027642 0.020059,-0.027641 0.020487,-0.026894 0.0209,-0.026895 0.021295,-0.026894 0.021679,-0.026894 0.022047,-0.026894 0.022396,-0.026894 0.022732,-0.026894 0.023051,-0.026894 0.023356,-0.026147 0.023648,-0.026147 0.023918,-0.026147 0.024178,-0.026147 0.024422,-0.026147 0.024646,-0.026147 0.024862,-0.026147 0.025056,-0.026147 0.025237,-0.026147 0.025403,-0.026147 0.02555,-0.026147 0.025688,-0.026147 0.025807,-0.026147 0.025909,-0.026147 0.025996,-0.026146 0.026073,-0.026147 0.026127,-0.026894 0.026172,-0.026894 0.026194,-0.026894 0.026209,-0.026895 0.026199,-0.026894 0.026172,-0.026894 0.02612,-0.026894 0.02605,-0.026894 0.025953,-0.027641 0.025839,-0.027642 0.025703,-0.027641 0.025542,-0.027642 0.025358,-0.027641 0.025158,-0.027642 0.024932,-0.027641 0.024684,-0.027641 0.024415,-0.028389 0.024125,-0.028389 0.023812,-0.028389 0.023475,-0.028388 0.023118,-0.028389 0.022744,-0.029135 0.02234,-0.029136 0.021918,-0.029135 0.021477,-0.029135 0.021006,-0.029883 0.020522,-0.029882 0.02001,-0.029882 0.01948,-0.029883 0.018927,-0.030629 0.01835,-0.03063 0.017754,-0.03063 0.017133,-0.030629 0.016495,-0.03063 0.01583,-0.031377 0.015145,-0.031377 0.014439,-0.031377 0.013712,-0.032124 0.012961,-0.032123 0.012188,-0.032124 0.011393,-0.032123 0.010578,-0.032871 0.00974,-0.03287 0.00888,-0.032871 0.008,-0.033618 0.00709,-0.033617 0.00617,-0.033618 0.00522,-0.034366 0.00425,-0.034365 0.00326,-0.034365 0.00225,-0.035112 0.00121,-0.035112 1.749e-4,-0.035859 -9.27e-4,-0.035859 -0.00203,-0.0358584 -0.00315,-0.0366069 -0.00428,-0.036606 -0.00546,-0.036606 L 3.8915246,0.8215559 3.8836746,0.7842022 3.8745946,0.7461026 3.8642566,0.7080021 3.8526436,0.6699016 3.8397346,0.6310543 3.8255066,0.592207 3.8099346,0.5526129 3.7930046,0.5130179 3.7748096,0.4734238 3.7556376,0.4338297 3.7357906,0.3942347 3.7155716,0.3553874 3.6952876,0.3172869 3.6752376,0.2799341 3.6557266,0.2440749 3.6370536,0.2097101 3.6195256,0.1775866 3.6034476,0.1469567 l -0.01433,-0.027641 -0.012276,-0.02540063 -0.00992,-0.0224117 -0.00726,-0.01942364 -0.0043,-0.0156888 -0.00103,-0.01195309 0.00248,-0.00822 0.0059,-0.00746794 h 0.00913 0.012158 l 0.014985,0.00746794 0.01761,0.008965 0.020037,0.01195308 0.02226,0.01494113 0.024288,0.01792919 0.026112,0.02017044 0.027735,0.02241257 0.029162,0.024653 0.030388,0.0268942 0.031412,0.0283887 0.032236,0.0306291 0.032857,0.0321244 0.033284,0.0328703 0.033508,0.0343656 0.033531,0.0351116 0.033355,0.0358592 0.032976,0.036606 0.032401,0.0373528 0.031624,0.0381005 0.030647,0.0381005 0.029466,0.0381005 0.028105,0.0380996 0.026703,0.0373537 0.025324,0.0373528 0.023981,0.0373537 0.022664,0.0373528 0.021382,0.036606 0.020129,0.036606 0.018907,0.0366069 0.017715,0.036606 0.016554,0.0358584 0.015422,0.0358592 0.014325,0.0358591 0.013255,0.035859 0.012215,0.035859 0.011209,0.035112 0.010233,0.035112 0.00929,0.035112 0.00837,0.035112 0.00749,0.035112 0.00663,0.035113 0.00581,0.034365 0.00501,0.034365 0.00425,0.034365 0.00352,0.034366 0.00282,0.034365 0.00215,0.034365 0.00151,0.033618 9.007e-4,0.033618 3.498e-4,0.033618 -2.624e-4,0.033618 -6.995e-4,0.033617 -0.00122,0.033618 -0.00168,0.033618 -0.00211,0.033618 -0.0025,0.032871 -0.00286,0.03287 -0.00319,0.032871 -0.0035,0.03287 -0.00377,0.032871 -0.00401,0.032871 -0.00422,0.03287 -0.0044,0.032871 -0.00455,0.03287 -0.00466,0.032871 -0.00476,0.032871 -0.00481,0.032123 -0.00484,0.032124 -0.00484,0.032123 -0.0048,0.032124 -0.00473,0.032124 -0.00463,0.032123 -0.0045,0.032124 -0.00435,0.032123 -0.00416,0.032123 -0.00394,0.032123 -0.00369,0.032124 -0.00341,0.032124 -0.0031,0.032123 -0.00275,0.032123 -0.00238,0.032124 -0.00198,0.032123 -0.00155,0.032124 -0.00108,0.032124 -6.122e-4,0.032124 -5.94e-5,0.032123 5.246e-4,0.032123 0.00108,0.032124 0.00171,0.032123 0.00235,0.032124 0.00299,0.032123 0.0036,0.032124 0.00421,0.03287 0.00478,0.032871 0.00534,0.03287 0.00588,0.032871 0.00639,0.032871 0.00689,0.03287 0.00736,0.032871 0.00782,0.03287 0.00825,0.032871 0.00866,0.032871 0.00905,0.03287 0.00943,0.032871 0.00978,0.03287 0.010105,0.032871 0.010413,0.032871 0.010701,0.03287 0.010973,0.032871 0.011219,0.03287 0.011447,0.032871 0.01165,0.03287 0.011839,0.032871 0.011999,0.032871 0.012147,0.03287 0.012271,0.032871 0.012373,0.03287 0.012457,0.032871 0.012517,0.032871 0.012559,0.03287 0.012579,0.032871"
         style="fill:none;stroke:#000000;stroke-width:0.0174893;stroke-dasharray:none"
         id="path6628" /><path
         d="m 4.7188373,3.9399458 0.012986,-0.02017 0.012985,-0.02017 0.012974,-0.020171 0.012968,-0.02017 0.012954,-0.02017 0.01294,-0.020171 0.012921,-0.02017 0.0129,-0.02017 0.012875,-0.020171 0.012846,-0.02017 0.012816,-0.02017 0.012781,-0.020171 0.012745,-0.020171 0.012704,-0.02017 0.012661,-0.020918 0.012614,-0.020918 0.012565,-0.020917 0.012513,-0.020918 0.012458,-0.020918 0.012397,-0.020917 0.012336,-0.020918 0.012271,-0.020918 0.012204,-0.021665 0.012132,-0.021665 0.012059,-0.021664 0.011979,-0.021665 0.011901,-0.021665 0.011805,-0.021665 0.011691,-0.022413 0.011552,-0.022412 0.01139,-0.022412 0.011206,-0.022412 0.011001,-0.022413 0.01077,-0.022412 0.01052,-0.023158 0.010245,-0.023159 0.00995,-0.023159 0.00963,-0.023159 0.00929,-0.023159 0.00892,-0.023159 0.00853,-0.023159 0.00812,-0.023158 0.0077,-0.023159 0.00723,-0.023906 0.00676,-0.023906 0.00626,-0.023906 0.00574,-0.023906 0.00519,-0.023905 0.00462,-0.023906 0.00403,-0.023906 0.00342,-0.023906 0.00278,-0.023906 0.00212,-0.023906 0.00143,-0.023906 6.995e-4,-0.023906 7e-6,-0.023905 -6.995e-4,-0.023906 -0.00151,-0.023906 -0.00231,-0.023906 -0.00313,-0.023906 -0.00394,-0.023906 -0.00469,-0.023906 -0.00539,-0.023906 -0.00603,-0.023906 -0.00663,-0.023905 -0.00717,-0.023906 -0.00765,-0.023906 -0.00808,-0.023906 -0.00846,-0.023906 -0.00878,-0.023906 -0.00905,-0.023906 -0.00927,-0.023906 -0.00943,-0.023905 -0.00954,-0.023906 -0.00959,-0.023906 -0.00959,-0.023906 -0.00954,-0.023906 -0.00943,-0.023906 -0.00927,-0.023906 -0.00906,-0.023906 -0.00878,-0.023159 -0.00846,-0.023159 -0.00808,-0.023159 -0.00765,-0.023159 -0.00717,-0.023159 -0.00663,-0.023159 -0.00603,-0.023159 -0.0054,-0.023159 -0.00469,-0.022412 -0.00394,-0.022413 -0.00313,-0.022412 -0.00226,-0.022412 -0.00135,-0.022412 -3.498e-4,-0.022413 6.122e-4,-0.021665 0.00172,-0.021665 0.00285,-0.021665 0.004,-0.021665 0.00508,-0.021664 0.00609,-0.021665 0.00702,-0.021665 0.00789,-0.021665 0.00867,-0.020918 0.0094,-0.020918 0.010048,-0.020917 0.010624,-0.020918 0.011128,-0.020918 0.011561,-0.020917 0.011922,-0.021665 0.012209,-0.020918 0.012426,-0.021665 0.012572,-0.021665 0.012644,-0.021665 0.012645,-0.021665 0.012574,-0.021665 0.01243,-0.021665 0.012215,-0.021664 0.011928,-0.022413 0.011568,-0.022412 0.011138,-0.022412 0.010634,-0.022413 0.01006,-0.023159 0.00941,-0.023159 0.00869,-0.023159 0.00791,-0.023906 0.00704,-0.023906 0.0061,-0.024653 0.0051,-0.024653 0.00402,-0.024654 0.00287,-0.0254 0.00164,-0.0254006 L 5.3465575,0.9621547 5.3455475,0.9360073 5.3430875,0.9091131 5.3391475,0.8822189 5.3337875,0.854577 5.3271175,0.826936 5.3192375,0.7985473 5.3102575,0.7701586 5.3002775,0.7417708 5.2894115,0.7133821 5.2777605,0.6849934 5.2654325,0.6566047 5.2525315,0.6282169 5.2391635,0.600575 5.2254355,0.572934 5.2114505,0.5460398 5.1973165,0.5191456 5.1831395,0.4929982 5.1690245,0.4675976 5.1550765,0.4421979 5.1414015,0.4175449 5.1281075,0.3936387 5.1152975,0.3704793 5.1030795,0.3480676 5.0915575,0.3271495 l -0.01072,-0.0201704 -0.00981,-0.0194236 -0.0088,-0.0179301 -0.00768,-0.0171824 -0.00645,-0.0156879 -0.00512,-0.0141943 -0.00368,-0.0126999 -0.00214,-0.0112063 -5.247e-4,-0.009712 0.00126,-0.00822 0.00312,-0.007468 0.00504,-0.007468 h 0.00689 0.00866 l 0.010331,-4.3723e-4 h 0.011918 0.013417 l 0.014829,0.007468 0.016153,0.007468 0.017389,0.007468 0.018537,0.007468 0.019597,0.008965 0.020569,0.0104586 0.021452,0.0112063 0.02225,0.0119531 0.022957,0.0134467 0.023578,0.0141943 0.02411,0.014942 0.024554,0.0164347 0.024912,0.0171824 0.025179,0.0179301 0.025361,0.0186769 0.025454,0.0194236 0.025457,0.0194237 0.025375,0.0201704 0.025206,0.0209181 0.024943,0.0216649 0.024599,0.021664 0.024164,0.0224126 0.023642,0.0224117 0.023031,0.0231594 0.022332,0.0231585 0.021543,0.0231594 0.020671,0.0239062 0.019708,0.0239053 0.018661,0.0239062 0.017545,0.0239062 0.016456,0.0239062 0.0154,0.0239062 0.014377,0.0239062 0.013386,0.0239062 0.012432,0.0239062 0.011514,0.0239053 0.010628,0.0239062 0.00977,0.0239062 0.00896,0.0239062 0.00818,0.0239062 0.00742,0.0239062 0.00671,0.0239062 0.00603,0.0239062 0.00539,0.0239061 0.00477,0.023905 0.0042,0.023906 0.00366,0.023906 0.00315,0.023906 0.00267,0.023906 0.00223,0.023906 0.00182,0.023906 0.00146,0.023906 0.00111,0.023905 7.87e-4,0.023906 5.247e-4,0.023906 3.498e-4,0.023906 8.74e-5,0.023906 -5.95e-5,0.023906 -1.749e-4,0.023906 -2.623e-4,0.023906 -3.498e-4,0.023905 -3.498e-4,0.023906 -3.498e-4,0.023906 -3.497e-4,0.023906 -2.624e-4,0.023906 -1.749e-4,0.023906 -8.7e-6,0.023906 1.749e-4,0.023906 3.498e-4,0.023159 6.121e-4,0.023159 8.919e-4,0.023159 0.00122,0.023159 0.00157,0.023159 0.00194,0.023159 0.00236,0.023159 0.00281,0.023158 0.00331,0.023159 0.00382,0.023158 0.00437,0.023159 0.00496,0.023158 0.00556,0.022413 0.00616,0.022412 0.00672,0.022412 0.00726,0.022413 0.00776,0.022412 0.00823,0.022412 0.00867,0.022412 0.00909,0.022413 0.00947,0.022412 0.00983,0.022412 0.010157,0.022412 0.010452,0.022413 0.010721,0.021665 0.010962,0.021665 0.011173,0.021664 0.011356,0.021665 0.011505,0.021665 0.011629,0.021665 0.011723,0.021665 0.011788,0.021665 0.011825,0.021665 0.011831,0.021665 0.011805,0.021665 0.011757,0.021665 0.011672,0.021665 0.011565,0.021665 0.011424,0.021665 0.011258,0.021665 0.011058,0.021665 0.01083,0.021665 0.010574,0.021665 0.010292,0.021665 0.00997,0.021665 0.00963,0.021665 0.00926,0.021665 0.00885,0.021664 0.00843,0.021665 0.00797,0.022413 0.00751,0.022412 0.00706,0.022412 0.00661,0.022412 0.00617,0.022413 0.00573,0.022412 0.0053,0.022412 0.00487,0.022413 0.00444,0.022412 0.00402,0.022412 0.00361,0.022412 0.00321,0.022413 0.0028,0.022412 0.0024,0.022412 0.00201,0.022412 0.00162,0.022413 0.00124,0.022412 8.745e-4,0.022412 5.247e-4,0.022412 8.74e-5,0.023159 -2.623e-4,0.023159 -6.121e-4,0.023159 -9.532e-4,0.023159 -0.0013,0.023159 -0.00164,0.023159 -0.00199,0.023159 -0.00232,0.023159 -0.00264,0.023159 -0.00297,0.023158 -0.00329,0.023159 -0.0036,0.023158 -0.00392,0.023159 -0.00421,0.023159 -0.00451,0.023159 -0.0048,0.023159 -0.0051,0.023159 -0.00538,0.023159 -0.00566,0.023159 -0.00593,0.023159 -0.0062,0.023159 -0.00646,0.023159 -0.00672,0.023159 -0.00698,0.023159 -0.00723,0.023906 -0.00747,0.023906 -0.00771,0.023159 -0.00794,0.023906 -0.00817,0.023906 -0.00839,0.023906 -0.00861,0.023906 -0.00883,0.023906 -0.00904,0.023906 -0.00924,0.023906 -0.00944,0.023905 -0.00963,0.023906 -0.00983,0.023906 -0.010007,0.023906 -0.010187,0.023906 -0.010363,0.023906 -0.010531,0.023906 -0.010696,0.023906 -0.010854,0.023906 -0.011009,0.023905 -0.011159,0.023906 -0.011302,0.023906 -0.011442,0.023906 -0.011577,0.023906 -0.011706,0.023906 -0.01183,0.023906 -0.01195,0.023906 -0.012062,0.023905 -0.012175,0.023906 -0.012277,0.023906 -0.012378,0.023906 -0.012473,0.023906 -0.012562,0.023906 -0.012646,0.023906 -0.012725,0.023906 -0.012802,0.023905 -0.01287,0.023906 -0.012934,0.023906 -0.012997,0.023906 -0.013047,0.023906 -0.013101,0.023906 -0.013144,0.023906 -0.013183,0.023906 -0.013219,0.023906 -0.013248,0.023905 -0.013273,0.023906 -0.013293,0.023906 -0.013308,0.023906 -0.013319,0.023906 -0.013324,0.023906"
         style="fill:none;stroke:#000000;stroke-width:0.0174893;stroke-dasharray:none"
         id="path6630" /><path
         d="m 5.7609415,4.8529333 0.033942,-0.011206 0.03393,-0.011205 0.033906,-0.011206 0.033866,-0.011206 0.033815,-0.011205 0.033754,-0.011206 0.033678,-0.011205 0.033586,-0.011206 0.033489,-0.011953 0.033371,-0.011953 0.033251,-0.011953 0.033106,-0.0127 0.03296,-0.0127 0.032793,-0.013447 0.032614,-0.013448 0.032429,-0.014193 0.032222,-0.014194 0.032011,-0.014941 0.031782,-0.015689 0.031546,-0.015688 0.031288,-0.016436 0.031025,-0.017182 0.030748,-0.017182 0.030455,-0.01793 0.030152,-0.018677 0.02984,-0.019424 0.029509,-0.02017 0.029167,-0.020918 0.028815,-0.020917 0.028451,-0.022412 0.028069,-0.023159 0.027682,-0.023906 0.027287,-0.024653 0.026885,-0.025401 0.026476,-0.0254 0.026064,-0.026147 0.025641,-0.026894 0.025211,-0.027641 0.024781,-0.028389 0.024333,-0.029135 0.023887,-0.029883 0.02343,-0.029882 0.022967,-0.03063 0.022498,-0.031377 0.022023,-0.031376 0.021538,-0.032124 0.02105,-0.03287 0.020552,-0.032871 0.02005,-0.033618 0.01954,-0.033618 0.019021,-0.034365 0.018498,-0.034365 0.017969,-0.035112 0.017429,-0.035112 0.016886,-0.035859 0.016337,-0.035859 0.015775,-0.035859 0.015213,-0.036606 0.01464,-0.036606 0.014064,-0.036606 0.013477,-0.036606 0.012884,-0.037354 0.012287,-0.037353 0.011681,-0.037353 0.011072,-0.037354 0.01045,-0.037353 0.00982,-0.037354 0.00919,-0.037353 0.00855,-0.037354 0.00791,-0.037353 0.00726,-0.037353 0.00659,-0.037354 0.00592,-0.037353 0.00526,-0.037354 0.00457,-0.037353 0.00388,-0.037354 0.00319,-0.037353 0.00248,-0.036606 0.00178,-0.036606 0.00107,-0.036606 3.498e-4,-0.036607 -3.498e-4,-0.035858 -0.00111,-0.035859 -0.00186,-0.035112 -0.0026,-0.035112 -0.00337,-0.035112 -0.00413,-0.034365 -0.00489,-0.034365 -0.00567,-0.033618 -0.00645,-0.033618 -0.00724,-0.032871 -0.00804,-0.032123 -0.00884,-0.032123 -0.00965,-0.031377 -0.010464,-0.031377 -0.011286,-0.03063 -0.012116,-0.029882 -0.012926,-0.029135 -0.0137,-0.029136 -0.014434,-0.028389 -0.015134,-0.028389 -0.015793,-0.027641 -0.016415,-0.027641 -0.017001,-0.027642 -0.017545,-0.027641 -0.018054,-0.027642 -0.018528,-0.027641 -0.018959,-0.027642 -0.019356,-0.027641 -0.019714,-0.027641 -0.020033,-0.027642 -0.020315,-0.028389 -0.020562,-0.028388 -0.020767,-0.029135 -0.020936,-0.029883 -0.021066,-0.029882 -0.02116,-0.03063 -0.021216,-0.031377 -0.021235,-0.032123 -0.021214,-0.03287 -0.021157,-0.033618 -0.021062,-0.035112 -0.02093,-0.035859 -0.020755,-0.036606 -0.02055,-0.037353 -0.020309,-0.038847 -0.020039,-0.039595 -0.019739,-0.040341 -0.019411,-0.041089 -0.019055,-0.041836 -0.018663,-0.042582 -0.018246,-0.042583 -0.0178,-0.0433298 L 6.7187445,0.9435497 6.7019325,0.9002199 6.6856545,0.856891 6.6699445,0.8135612 6.6548325,0.7702314 6.6403455,0.7276484 6.6265155,0.685813 6.6133685,0.6439777 6.6009375,0.6028892 6.5892525,0.5625474 6.5783405,0.5229533 6.5682345,0.4841051 l -0.00927,-0.0373528 -0.0084,-0.036606 -0.00752,-0.0351125 -0.00659,-0.0336171 -0.00564,-0.0321244 -0.00466,-0.0306291 -0.00365,-0.0291355 -0.0026,-0.0276419 -0.00153,-0.0253997 -4.372e-4,-0.0231594 6.996e-4,-0.0216649 0.00186,-0.0194237 0.00305,-0.0171824 0.00428,-0.0149411 0.00552,-0.01195309 0.00679,-0.0097118 0.00811,-0.0074679 0.00943,-0.007468 h 0.010703 0.01195 0.013149 l 0.014316,0.007468 0.015441,0.00822 0.016532,0.01045862 0.017579,0.01270075 0.01859,0.0149411 0.019564,0.0164356 0.020502,0.018676 0.021395,0.0201713 0.022252,0.0216649 0.023074,0.0239062 0.023854,0.0253997 0.024596,0.0261474 0.025302,0.027641 0.025965,0.0291355 0.026595,0.0306299 0.027182,0.0313767 0.027735,0.0321235 0.028244,0.033618 0.028721,0.0343648 0.029156,0.0351124 0.029551,0.0358593 0.029913,0.036606 0.030231,0.036606 0.030512,0.0373528 0.030757,0.0373537 0.030963,0.0373528 0.031127,0.0381005 0.031259,0.0381005 0.031344,0.0380996 0.031401,0.0381005 0.031408,0.0373537 0.031387,0.0373528 0.031322,0.036606 0.031223,0.036606 0.031084,0.035859 0.030933,0.035859 0.030759,0.035112 0.030574,0.034366 0.030373,0.033618 0.030152,0.033617 0.029916,0.032871 0.029667,0.032871 0.029396,0.032124 0.029114,0.032123 0.028811,0.031377 0.028495,0.031377 0.028162,0.03063 0.027812,0.030629 0.027445,0.029883 0.02706,0.029882 0.026683,0.029135 0.026231,0.029135 0.025836,0.029135 0.025355,0.028389 0.024904,0.028389 0.024452,0.028388 0.023916,0.027642 0.023436,0.027641 0.02287,0.027642 0.022363,0.027641 0.02177,0.026894 0.021205,0.026894 0.020612,0.026895 0.01999,0.026894 0.019397,0.026894 0.018721,0.026147 0.018071,0.026146 0.017393,0.026147 0.016687,0.026147 0.01601,0.026147 0.015275,0.026147 0.014514,0.026146 0.013779,0.026148 0.012988,0.026147 0.012225,0.026147 0.01138,0.026147 0.010588,0.026147 0.00974,0.026147 0.00889,0.026147 0.00802,0.026147 0.00711,0.026894 0.00622,0.026894 0.00531,0.026894 0.00438,0.026894 0.00339,0.026894 0.00246,0.027642 0.00147,0.027641 5.246e-4,0.027642 -4.372e-4,0.027641 -0.00127,0.028389 -0.00218,0.028389 -0.00302,0.028388 -0.00384,0.028389 -0.00466,0.029135 -0.00545,0.029136 -0.00618,0.029135 -0.00695,0.029136 -0.00768,0.029883 -0.00836,0.029882 -0.00901,0.029882 -0.00968,0.029883 -0.010307,0.029882 -0.010898,0.03063 -0.011492,0.030629 -0.012028,0.03063 -0.012592,0.03063 -0.013101,0.031377 -0.013582,0.031376 -0.014033,0.031377 -0.014513,0.031377 -0.014908,0.031377 -0.015332,0.031377 -0.015671,0.032124 -0.016067,0.032124 -0.016376,0.032123 -0.016687,0.032123 -0.01697,0.032124 -0.017224,0.032123 -0.017477,0.032871 -0.017704,0.03287 -0.017901,0.032871 -0.018042,0.03287 -0.018212,0.032871 -0.018353,0.032871 -0.018438,0.033617 -0.018522,0.033618 -0.018579,0.033618 -0.018636,0.033618 -0.018636,0.033618 -0.018607,0.033618 -0.018607,0.034365 -0.018523,0.034365 -0.018466,0.034365 -0.018352,0.034366 -0.018238,0.034365 -0.018091,0.034365 -0.017923,0.034365 -0.017732,0.034365 -0.017518,0.035112 -0.017283,0.035112 -0.017023,0.035113 -0.016741,0.035112 -0.016438,0.035112 -0.016111,0.035112 -0.015759,0.035112 -0.015388,0.035859 -0.014993,0.035112 -0.014576,0.035859 -0.014135,0.035859 -0.013671,0.035859 -0.013185,0.035859 -0.012675,0.035858 -0.012147,0.035859 -0.01159,0.035859 -0.011015,0.035859 -0.010417,0.035859 -0.00979,0.035859 -0.00915,0.036606 -0.00848,0.036606 -0.00779,0.036606 -0.00708,0.036606 -0.00634,0.036606 -0.00558,0.036606 -0.0048,0.036606 -0.004,0.036607 -0.00317,0.036606 -0.00233,0.036606 -0.00145,0.036606 -5.246e-4,0.036606 2.623e-4,0.036606 9.969e-4,0.036606 0.00158,0.036606 0.00203,0.036607 0.00235,0.036606 0.00254,0.036606 0.00259,0.036606 0.00251,0.036606 0.0023,0.035859 0.00195,0.035859 0.00147,0.035112 8.745e-4,0.035112 8.74e-5,0.034365 -7.87e-4,0.034365 -0.00178,0.033618 -0.00291,0.033618 -0.00419,0.032871 -0.00561,0.032124 -0.00714,0.032123 -0.00877,0.031377 -0.010366,0.03063 -0.011903,0.029882 -0.013387,0.029882 -0.014806,0.029136 -0.016179,0.028389 -0.017487,0.028389 -0.01874,0.027641 -0.019934,0.027642 -0.021076,0.026894 -0.022158,0.026894 -0.023185,0.026148 -0.024149,0.026147 -0.025065,0.0254 -0.025918,0.025401 -0.026714,0.0254 -0.027457,0.024653 -0.028138,0.024653 -0.028766,0.024654 -0.029338,0.023906 -0.029847,0.023905 -0.030305,0.023906 -0.030703,0.023159 -0.031045,0.023159 -0.031328,0.023159 -0.031559,0.023159 -0.031727,0.023158 -0.031842,0.023159 -0.031901,0.023159"
         style="fill:none;stroke:#000000;stroke-width:0.0174893;stroke-dasharray:none"
         id="path6632" /><path
         style="fill:#ed7800;stroke-width:0.0165854;stroke-miterlimit:1;stroke-dasharray:none;fill-opacity:1"
         d="M 3.3291207,6.4716227 C 2.7022411,5.921293 2.348448,5.4337606 2.1662804,4.86921 2.0436503,4.4891706 2.0322966,4.0739314 2.1364201,3.7771467 2.2490976,3.4559799 2.4098312,3.2408489 2.9743114,2.6556852 3.4523618,2.1601183 3.6480097,1.9163687 3.7765598,1.6561982 3.9013284,1.4036805 3.9371333,1.2403637 3.9232689,0.98700863 3.9099585,0.74377227 3.8715848,0.62325113 3.6993494,0.28373927 3.6323256,0.15162121 3.5872859,0.04352483 3.5992609,0.04352483 c 0.035704,0 0.3116254,0.24694728 0.4314547,0.38614802 0.2333551,0.27107909 0.3417932,0.45671794 0.428406,0.73340335 0.068736,0.2195765 0.069091,0.6210502 9.533e-4,1.0798771 -0.090634,0.6103219 -0.063107,0.8592939 0.1649764,1.4921673 0.042404,0.1176593 0.084924,0.213926 0.094489,0.213926 0.030264,0 0.2467754,-0.3519324 0.3850113,-0.6258226 C 5.3305663,2.8754142 5.3411628,2.6914407 5.1670792,2.2376383 5.0817662,2.0152434 5.061626,1.9364021 5.0605862,1.8207568 5.0593831,1.6870858 5.0670447,1.6643755 5.182705,1.4587281 5.3391126,1.1806306 5.3622676,1.1067311 5.3516843,0.91942985 5.3440473,0.78427345 5.3273956,0.7372118 5.1958076,0.47887976 5.1147782,0.31980395 5.052659,0.1854733 5.0577649,0.18036745 c 0.027893,-0.0278932 0.3452174,0.17583642 0.4985506,0.32008124 0.2956142,0.27809282 0.3409082,0.39998367 0.35609,0.95827941 0.011891,0.4372933 0.020409,0.4685161 0.2518507,0.9232394 0.1781783,0.3500737 0.222486,0.4972145 0.222486,0.738851 0,0.4017742 -0.1650334,0.863015 -0.5731807,1.6019432 -0.038415,0.069548 -0.06342,0.1328769 -0.055567,0.1407301 C 5.7765568,4.8820543 6.2466801,4.7105421 6.430635,4.6180965 6.8077388,4.428585 7.0806931,4.1334014 7.2973477,3.6807988 7.451348,3.3590843 7.5087555,3.1325019 7.5219725,2.7942249 7.5404212,2.3220476 7.4769508,2.135868 7.1377488,1.6671688 6.9732016,1.4398021 6.8128359,1.1356421 6.7066284,0.84947792 6.5624305,0.46095304 6.5038289,0.11735497 6.5776299,0.09312576 6.6231624,0.07817699 6.7987219,0.25936244 7.1779952,0.71272947 7.3799033,0.95408202 7.6662025,1.2848444 7.8142156,1.4477575 c 0.3769865,0.4149357 0.5200995,0.599932 0.6110512,0.7898808 0.072406,0.1512157 0.078794,0.1805698 0.078794,0.3620287 0,0.285359 -0.077012,0.494846 -0.3952381,1.0751155 C 7.5771254,4.6443081 7.5202296,4.8218263 7.5181121,5.5178376 L 7.51671,5.9786015 7.4520268,6.0953687 C 7.3699946,6.2434547 7.2146964,6.4040751 6.9859329,6.5774355 L 6.8062138,6.7136293 H 5.2055027 3.6047904 Z"
         id="path7158" /><path
         style="fill:#280b0b;stroke-width:0.0165854;stroke-miterlimit:1;stroke-dasharray:none"
         d="M 0.56768602,9.5191102 C 0.33557528,9.2818992 0.15525284,8.9563 0.07473127,8.6290056 0.01935675,8.4039252 0.0252916,7.9609344 0.08672383,7.7338921 0.17717762,7.3995909 0.32627008,7.1368119 0.56911103,6.8836732 L 0.71118884,6.7355705 H 4.997571 9.2839531 l 0.099029,0.091282 c 0.2440307,0.22494 0.4567092,0.6016925 0.5378314,0.9527502 0.040833,0.1767064 0.046382,0.2512149 0.037084,0.4979271 -0.0093,0.246762 -0.021125,0.3212804 -0.079116,0.4985666 C 9.7902037,9.0468914 9.6473536,9.287368 9.4544162,9.490481 L 9.299335,9.6537412 H 4.9993789 0.69942255 Z"
         id="path7160" /></g></g></svg>
