<?xml version="1.0" encoding="UTF-8" standalone="no"?>
<!-- Created with Inkscape (http://www.inkscape.org/) -->

<svg
   width="10mm"
   height="9.9999962mm"
   viewBox="0 0 10 9.9999962"
   version="1.1"
   id="svg5"
   xml:space="preserve"
   inkscape:version="1.2 (dc2aedaf03, 2022-05-15)"
   sodipodi:docname="FJV-SYMBOL.svg"
   xmlns:inkscape="http://www.inkscape.org/namespaces/inkscape"
   xmlns:sodipodi="http://sodipodi.sourceforge.net/DTD/sodipodi-0.dtd"
   xmlns="http://www.w3.org/2000/svg"
   xmlns:svg="http://www.w3.org/2000/svg"><sodipodi:namedview
     id="namedview7"
     pagecolor="#505050"
     bordercolor="#eeeeee"
     borderopacity="1"
     inkscape:showpageshadow="0"
     inkscape:pageopacity="0"
     inkscape:pagecheckerboard="0"
     inkscape:deskcolor="#505050"
     inkscape:document-units="mm"
     showgrid="false"
     inkscape:zoom="4"
     inkscape:cx="35"
     inkscape:cy="37.625"
     inkscape:window-width="2558"
     inkscape:window-height="1008"
     inkscape:window-x="1673"
     inkscape:window-y="0"
     inkscape:window-maximized="0"
     inkscape:current-layer="layer1" /><defs
     id="defs2"><marker
       id="DistanceX"
       orient="auto"
       refX="0"
       refY="0"
       style="overflow:visible"><path
         d="M 3,-3 -3,3 M 0,-5 V 5"
         style="stroke:#000000;stroke-width:0.5"
         id="path11" /></marker><pattern
       id="Hatch"
       patternUnits="userSpaceOnUse"
       width="8"
       height="8"
       x="0"
       y="0"><path
         d="M8 4 l-4,4"
         stroke="#000000"
         stroke-width="0.25"
         linecap="square"
         id="path14" /><path
         d="M6 2 l-4,4"
         stroke="#000000"
         stroke-width="0.25"
         linecap="square"
         id="path16" /><path
         d="M4 0 l-4,4"
         stroke="#000000"
         stroke-width="0.25"
         linecap="square"
         id="path18" /></pattern><symbol
       id="$MODEL_SPACE" /><symbol
       id="$PAPER_SPACE" /></defs><g
     inkscape:label="Layer 1"
     inkscape:groupmode="layer"
     id="layer1"><g
       id="g2090"
       transform="matrix(0.07572613,0,0,0.07572613,-3.8376107,-1.827936)"><path
         d="m 182.63232,90.16616 a 65.927409,65.927409 0 0 0 -131.854819,0 65.927409,65.927409 0 0 0 131.854819,0 z"
         style="fill:none;stroke:#000000;stroke-width:0.2;stroke-dasharray:none"
         id="path25" /><path
         d="m 178.38399,90.16616 a 61.679082,61.679082 0 0 0 -123.358162,0 61.679082,61.679082 0 0 0 123.358162,0 z"
         style="fill:none;stroke:#000000;stroke-width:0.2;stroke-miterlimit:1;stroke-dasharray:none"
         id="path27" /><path
         d="m 135.88626,115.77842 a 19.181348,19.181348 0 0 0 -38.362695,0 19.181348,19.181348 0 0 0 38.362695,0 z"
         style="fill:none;stroke:#000000;stroke-width:0.2;stroke-dasharray:none"
         id="path29" /><path
         d="m 133.66666,115.77842 a 16.961748,16.961748 0 0 0 -33.923497,0 16.961748,16.961748 0 0 0 33.923497,0 z"
         style="fill:none;stroke:#000000;stroke-width:0.2;stroke-dasharray:none"
         id="path31" /><path
         d="m 135.88626,64.553086 a 19.181348,19.181348 0 0 0 -38.362695,0 19.181348,19.181348 0 0 0 38.362695,0 z"
         style="fill:none;stroke:#000000;stroke-width:0.2;stroke-dasharray:none"
         id="path33" /><path
         d="m 133.66666,64.553086 a 16.961748,16.961748 0 0 0 -33.923497,0 16.961748,16.961748 0 0 0 33.923497,0 z"
         style="fill:none;stroke:#000000;stroke-width:0.2;stroke-dasharray:none"
         id="path35" /><path
         style="fill:none;stroke-width:0.948317"
         d="M 424.37183,557.49806 C 320.55191,548.0302 239.40321,470.81954 225.65124,368.42113 c -1.78743,-13.30936 -1.74742,-41.59977 0.0787,-55.66505 3.03083,-23.34397 9.62857,-45.0723 20.40454,-67.19826 32.89983,-67.55222 98.29169,-113.15961 173.40439,-120.94046 15.26841,-1.58164 42.9189,-0.62954 57.93869,1.99504 84.7234,14.80465 152.91226,77.7489 173.97245,160.59175 11.12354,43.75577 8.44971,90.25611 -7.54152,131.15363 -28.8126,73.68815 -93.11872,125.2807 -171.17251,137.33103 -9.61604,1.48457 -39.6176,2.60689 -48.36417,1.80925 z m 39.32682,-34.4949 c 15.93327,-4.29722 28.83583,-11.93939 40.80596,-24.16931 23.10364,-23.60505 30.8287,-58.28939 20.0162,-89.86968 -9.39509,-27.44042 -30.59252,-47.65075 -59.10408,-56.35177 -7.53668,-2.30001 -9.81469,-2.5476 -23.97519,-2.60581 -13.58789,-0.0559 -16.6326,0.2202 -23.13422,2.09756 -25.84217,7.46199 -45.27595,23.64408 -56.45212,47.00645 -5.42869,11.34801 -7.3039,17.88779 -8.53153,29.75368 -3.5976,34.77327 14.15818,68.89974 44.72766,85.96619 6.62749,3.70002 20.54761,8.61672 28.32464,10.00448 8.41225,1.50112 28.64719,0.508 37.32268,-1.83179 z M 455.93287,330.9723 c 53.09029,-9.25818 85.35282,-62.18042 69.3013,-113.67923 -9.34431,-29.97975 -35.23153,-53.43556 -65.98557,-59.78798 -8.35042,-1.72483 -25.21088,-1.98152 -33.5172,-0.51029 -35.4354,6.27638 -63.68521,33.61859 -71.07543,68.79193 -1.85773,8.84181 -2.11312,25.97062 -0.50819,34.08598 2.65804,13.44058 8.03723,25.99774 15.42246,36.00218 20.15886,27.30835 53.44856,40.83714 86.36263,35.09741 z"
         id="path285"
         transform="scale(0.26458333)" /><path
         style="fill:none;stroke-width:0.0189663;stroke-dasharray:none"
         d="m 425.79431,330.10429 c -45.46992,-8.83989 -76.54076,-50.16433 -71.52668,-95.13103 4.09685,-36.74088 29.9802,-66.46732 65.95835,-75.75168 8.5184,-2.19822 10.64281,-2.37879 23.58635,-2.00481 15.55426,0.44941 23.97761,2.43761 36.03604,8.50574 31.3877,15.79516 51.17756,50.00893 48.44016,83.74593 -3.11213,38.35528 -29.04275,69.61549 -65.71491,79.22147 -9.54885,2.50126 -27.61511,3.196 -36.77931,1.41438 z m 28.92366,-39.10643 c 8.46114,-2.36079 15.73989,-6.80158 21.84445,-13.32737 10.08726,-10.78331 13.69254,-20.6772 13.02181,-35.73546 -0.50686,-11.3792 -2.17037,-16.65032 -8.06538,-25.55653 -9.53665,-14.40805 -25.70029,-22.31529 -43.39642,-21.2295 -26.0553,1.59867 -45.99337,22.65304 -45.99337,48.56845 0,33.10288 30.58776,56.20922 62.58891,47.28041 z"
         id="path287"
         transform="scale(0.26458333)" /><path
         style="fill:#ffff00;stroke-width:0.716838;stroke-miterlimit:1;stroke-dasharray:none"
         d="m 426.74262,572.69718 c -48.45387,-4.17601 -88.91129,-19.28853 -125.9078,-47.03175 -11.7236,-8.79138 -30.56002,-27.04718 -39.98814,-38.75555 -69.02757,-85.72223 -69.36075,-205.22604 -0.81207,-291.27036 36.42652,-45.72364 88.84619,-75.64037 148.68999,-84.85972 13.62178,-2.09853 49.21469,-2.34897 62.11476,-0.43705 36.33819,5.38568 68.27631,17.25593 96.72833,35.95044 57.60241,37.84788 93.52692,94.76561 103.98755,164.75477 1.91199,12.79257 1.65432,48.39661 -0.44953,62.11476 -5.50433,35.89099 -18.16253,68.74084 -37.45553,97.20248 -36.68295,54.11586 -94.63201,90.65327 -158.72493,100.07751 -12.03852,1.77015 -39.10681,3.03667 -48.18263,2.25447 z m 29.57412,-63.4052 c 33.89127,-7.18284 57.67104,-36.61165 57.67104,-71.37113 0,-12.84512 -1.94732,-21.33046 -7.57802,-33.02072 -7.39371,-15.35061 -19.12067,-26.6357 -35.45481,-34.11891 -9.33114,-4.27491 -18.56874,-6.15336 -30.26016,-6.15336 -33.06411,0 -61.8814,22.07349 -70.56843,54.05407 -2.33872,8.6098 -2.31008,29.36476 0.0524,37.93268 7.05214,25.57626 27.7454,45.79126 53.29866,52.06681 9.14864,2.24679 23.83103,2.51977 32.83937,0.61056 z m 4.09114,-194.46053 c 25.08933,-6.85729 45.2714,-27.55544 51.68881,-53.01059 2.26805,-8.9964 2.51492,-24.48853 0.53876,-33.81054 -5.13219,-24.20972 -24.33942,-45.53888 -48.1544,-53.4743 -17.81018,-5.93456 -39.14242,-4.59582 -55.23271,3.46622 -30.82421,15.44446 -46.68448,47.79455 -39.79196,81.16338 5.91819,28.65178 29.78195,51.89361 58.60165,57.07441 6.90389,1.24108 25.6402,0.42526 32.34985,-1.40858 z"
         id="path1056"
         transform="scale(0.26458333)" /><path
         style="fill:#1c1c24;stroke-width:0.716838;stroke-miterlimit:1;stroke-dasharray:none"
         d="m 421.05272,588.37479 c -21.90942,-1.93601 -46.00711,-7.28364 -66.04074,-14.65541 -22.98479,-8.45772 -50.30369,-24.06305 -70.04274,-40.01042 -11.42969,-9.23415 -30.94211,-29.03725 -39.52124,-40.10999 -20.0275,-25.84872 -35.33979,-56.44058 -43.91934,-87.74486 -13.10295,-47.80884 -11.30003,-98.83456 5.19274,-146.96358 5.23188,-15.26762 18.0492,-41.14047 27.0131,-54.52823 48.82561,-72.92202 129.80838,-114.801532 215.76773,-111.58236 41.16827,1.541749 79.35715,12.3012 114.06566,32.13721 67.53422,38.596 112.30229,104.61027 123.65356,182.33754 2.25119,15.41494 2.25631,52.44216 0.009,67.14576 -7.1645,46.88141 -24.35211,86.47865 -53.0885,122.3066 -39.34381,49.05306 -98.34903,82.07662 -161.30379,90.27717 -14.33564,1.86738 -38.91921,2.52751 -51.78571,1.39057 z m 59.47436,-17.04713 c 37.43685,-6.31824 75.46026,-23.23435 105.90882,-47.11742 10.20417,-8.00389 33.40571,-31.79919 41.31154,-42.36875 24.756,-33.09715 39.68926,-69.99207 45.71511,-112.9462 1.55633,-11.09393 1.53142,-44.8999 -0.0415,-56.42486 -10.95494,-80.26459 -58.6508,-147.13265 -129.56125,-181.64069 -82.2653,-40.033791 -178.79594,-29.1978 -249.77477,28.03832 -10.23593,8.25408 -28.32046,26.44822 -36.26542,36.48523 -19.65857,24.83502 -34.59291,54.38118 -42.49939,84.08098 -21.22169,79.71686 0.16734,163.85193 56.64102,222.80101 41.24339,43.05121 97.9437,69.20092 155.72973,71.82126 18.08955,0.82027 37.85558,-0.2006 52.83614,-2.72888 z"
         id="path1127"
         transform="scale(0.26458333)" /><path
         style="fill:#ff6600;stroke-width:0.358419;stroke-miterlimit:1;stroke-dasharray:none"
         d="m 434.09208,315.50477 c -31.366,-3.27207 -56.40868,-25.75628 -63.38352,-56.90799 -0.95737,-4.27588 -1.10203,-6.19799 -1.10203,-14.64225 0,-10.74961 0.70337,-15.31182 3.64638,-23.65126 8.36078,-23.69145 29.1733,-41.83266 53.63066,-46.74712 31.83575,-6.39707 63.96666,9.35398 78.31806,38.39269 4.6594,9.42787 6.42876,15.64723 7.45112,26.19092 1.22022,12.5843 -1.35585,25.8834 -7.32592,37.82047 -11.26483,22.52384 -32.76117,37.20173 -57.95831,39.57445 -5.82169,0.54821 -7.77684,0.5438 -13.27644,-0.0299 z m 13.27644,-7.2725 c 5.42673,-0.32254 12.84526,-2.12626 18.55165,-4.5106 32.67929,-13.6546 48.21823,-50.52667 35.26034,-83.66867 -8.19422,-20.95814 -27.47213,-36.38507 -49.9084,-39.93863 -7.11885,-1.12751 -18.81913,-0.68696 -25.33104,0.9538 -12.55944,3.16452 -22.87477,9.16228 -31.74008,18.45499 -6.91114,7.24433 -11.58307,15.0931 -14.59342,24.51672 -2.46549,7.71799 -2.88973,10.68759 -2.87889,20.15173 0.0104,9.12283 0.56584,12.94303 2.92693,20.13254 7.05018,21.46775 26.02722,38.42928 48.03533,42.9336 4.05784,0.8305 12.02449,1.58912 14.22476,1.35454 0.65196,-0.0695 3.10573,-0.24052 5.45282,-0.38002 z"
         id="path1129"
         transform="scale(0.26458333)" /><path
         style="fill:#ff6600;stroke-width:0.358419;stroke-miterlimit:1;stroke-dasharray:none"
         d="m 432.54149,508.99184 c -27.75052,-3.48792 -51.40681,-23.00366 -59.76766,-49.30655 -2.73995,-8.61978 -3.16858,-11.64719 -3.15363,-22.2741 0.0116,-8.22139 0.17262,-10.4282 1.04443,-14.31141 4.45948,-19.86339 16.19807,-36.49349 33.08131,-46.8664 6.70106,-4.11707 15.0979,-7.37996 23.945,-9.30467 6.14361,-1.33656 21.21013,-1.22068 27.82761,0.21403 22.32587,4.84037 40.72248,19.31896 50.42437,39.68523 11.55591,24.25824 8.58975,52.59314 -7.78283,74.3472 -3.71845,4.94067 -11.66506,12.43454 -16.89624,15.93362 -8.17632,5.46904 -18.00015,9.49679 -27.27827,11.18401 -5.08544,0.92479 -16.64892,1.30174 -21.44409,0.69904 z m 21.26256,-8.00077 c 18.95689,-3.78404 35.63147,-16.22758 44.44058,-33.16413 5.14464,-9.8912 7.32431,-18.75025 7.36676,-29.94159 0.0415,-10.94087 -1.76851,-19.09159 -6.29493,-28.34692 -3.75896,-7.68606 -6.32894,-11.27675 -12.69425,-17.73597 -12.66704,-12.85392 -29.76289,-19.48607 -48.2627,-18.72299 -23.98794,0.98946 -44.96668,14.69245 -55.29724,36.11929 -4.54726,9.43157 -6.57663,18.21032 -6.57663,28.44951 0,32.7623 24.26019,60.11051 56.97756,64.23009 4.9158,0.61898 14.99824,0.17916 20.34085,-0.88729 z"
         id="path1338"
         transform="scale(0.26458333)" /></g></g></svg>
